<svg width="22" height="22" viewBox="0 0 22 22"  xmlns="http://www.w3.org/2000/svg">
<path d="M10.9883 0.489227C10.7895 0.492332 10.6002 0.574195 10.4617 0.716834C10.3233 0.859472 10.2472 1.05122 10.25 1.24997V1.99997H2.25H1.25C1.15062 1.99856 1.05194 2.01692 0.959718 2.05399C0.867492 2.09105 0.783551 2.14607 0.712774 2.21585C0.641997 2.28563 0.585795 2.36879 0.547434 2.46048C0.509073 2.55217 0.489319 2.65058 0.489319 2.74997C0.489319 2.84936 0.509073 2.94777 0.547434 3.03946C0.585795 3.13115 0.641997 3.21431 0.712774 3.28409C0.783551 3.35387 0.867492 3.40889 0.959718 3.44595C1.05194 3.48301 1.15062 3.50137 1.25 3.49997H1.5V14.25C1.5 15.7599 2.74011 17 4.25 17H7.28711L5.5791 20.415C5.53236 20.5034 5.50376 20.6002 5.49497 20.6998C5.48619 20.7994 5.49741 20.8998 5.52797 20.9949C5.55853 21.0901 5.60781 21.1783 5.67292 21.2541C5.73803 21.33 5.81765 21.3921 5.9071 21.4368C5.99655 21.4814 6.09403 21.5078 6.1938 21.5142C6.29357 21.5207 6.39362 21.5071 6.48808 21.4743C6.58253 21.4415 6.66948 21.3902 6.74381 21.3233C6.81814 21.2565 6.87835 21.1754 6.9209 21.0849L8.96289 17H13.0371L15.0791 21.0849C15.1217 21.1754 15.1819 21.2565 15.2562 21.3233C15.3305 21.3902 15.4175 21.4415 15.5119 21.4743C15.6064 21.5071 15.7064 21.5207 15.8062 21.5142C15.906 21.5078 16.0035 21.4814 16.0929 21.4368C16.1824 21.3921 16.262 21.33 16.3271 21.2541C16.3922 21.1783 16.4415 21.0901 16.472 20.9949C16.5026 20.8998 16.5138 20.7994 16.505 20.6998C16.4962 20.6002 16.4676 20.5034 16.4209 20.415L14.7129 17H17.75C19.2599 17 20.5 15.7599 20.5 14.25V3.49997H20.75C20.8494 3.50137 20.9481 3.48301 21.0403 3.44595C21.1325 3.40889 21.2164 3.35387 21.2872 3.28409C21.358 3.21431 21.4142 3.13115 21.4526 3.03946C21.4909 2.94777 21.5107 2.84936 21.5107 2.74997C21.5107 2.65058 21.4909 2.55217 21.4526 2.46048C21.4142 2.36879 21.358 2.28563 21.2872 2.21585C21.2164 2.14607 21.1325 2.09105 21.0403 2.05399C20.9481 2.01692 20.8494 1.99856 20.75 1.99997H19.75H11.75V1.24997C11.7514 1.14959 11.7327 1.04994 11.6949 0.956924C11.6571 0.863912 11.6011 0.779431 11.53 0.708487C11.459 0.637544 11.3745 0.581583 11.2814 0.54392C11.1883 0.506257 11.0887 0.487659 10.9883 0.489227ZM3 3.49997H10.877C10.9575 3.5132 11.0396 3.5132 11.1201 3.49997H19V14.25C19 14.9491 18.4491 15.5 17.75 15.5H13.6094C13.5767 15.4945 13.5438 15.4913 13.5107 15.4902C13.4656 15.4894 13.4205 15.4927 13.376 15.5H8.625C8.5724 15.4914 8.51904 15.4884 8.46582 15.4912C8.43932 15.4927 8.41291 15.4956 8.38672 15.5H4.25C3.55089 15.5 3 14.9491 3 14.25V3.49997ZM12.7383 5.98923C12.5395 5.99233 12.3502 6.07419 12.2117 6.21683C12.0733 6.35947 11.9972 6.55122 12 6.74997V12.25C11.9986 12.3494 12.017 12.448 12.054 12.5403C12.0911 12.6325 12.1461 12.7164 12.2159 12.7872C12.2857 12.858 12.3688 12.9142 12.4605 12.9525C12.5522 12.9909 12.6506 13.0107 12.75 13.0107C12.8494 13.0107 12.9478 12.9909 13.0395 12.9525C13.1312 12.9142 13.2143 12.858 13.2841 12.7872C13.3539 12.7164 13.4089 12.6325 13.446 12.5403C13.483 12.448 13.5014 12.3494 13.5 12.25V6.74997C13.5014 6.64959 13.4827 6.54994 13.4449 6.45692C13.4071 6.36391 13.3511 6.27943 13.28 6.20849C13.209 6.13754 13.1245 6.08158 13.0314 6.04392C12.9383 6.00626 12.8387 5.98766 12.7383 5.98923ZM16.2383 7.48923C16.0395 7.49233 15.8502 7.5742 15.7117 7.71683C15.5733 7.85947 15.4972 8.05122 15.5 8.24997V12.25C15.4986 12.3494 15.517 12.448 15.554 12.5403C15.5911 12.6325 15.6461 12.7164 15.7159 12.7872C15.7857 12.858 15.8688 12.9142 15.9605 12.9525C16.0522 12.9909 16.1506 13.0107 16.25 13.0107C16.3494 13.0107 16.4478 12.9909 16.5395 12.9525C16.6312 12.9142 16.7143 12.858 16.7841 12.7872C16.8539 12.7164 16.9089 12.6325 16.946 12.5403C16.983 12.448 17.0014 12.3494 17 12.25V8.24997C17.0014 8.14959 16.9827 8.04994 16.9449 7.95692C16.9071 7.86391 16.8511 7.77943 16.78 7.70849C16.709 7.63754 16.6245 7.58158 16.5314 7.54392C16.4383 7.50626 16.3387 7.48766 16.2383 7.48923ZM9.23828 8.98923C9.03954 8.99233 8.85016 9.07419 8.71173 9.21683C8.5733 9.35947 8.49715 9.55122 8.5 9.74997V12.25C8.4986 12.3494 8.51696 12.448 8.55402 12.5403C8.59108 12.6325 8.6461 12.7164 8.71588 12.7872C8.78566 12.858 8.86882 12.9142 8.96051 12.9525C9.0522 12.9909 9.15061 13.0107 9.25 13.0107C9.34939 13.0107 9.4478 12.9909 9.53949 12.9525C9.63118 12.9142 9.71434 12.858 9.78412 12.7872C9.8539 12.7164 9.90892 12.6325 9.94598 12.5403C9.98305 12.448 10.0014 12.3494 10 12.25V9.74997C10.0014 9.64959 9.98271 9.54994 9.94493 9.45692C9.90715 9.36391 9.85108 9.27943 9.78005 9.20849C9.70901 9.13754 9.62446 9.08158 9.5314 9.04392C9.43834 9.00626 9.33866 8.98766 9.23828 8.98923ZM5.73828 10.4892C5.53954 10.4923 5.35016 10.5742 5.21173 10.7168C5.0733 10.8595 4.99715 11.0512 5 11.25V12.25C4.9986 12.3494 5.01696 12.448 5.05402 12.5403C5.09108 12.6325 5.1461 12.7164 5.21588 12.7872C5.28566 12.858 5.36882 12.9142 5.46051 12.9525C5.5522 12.9909 5.65061 13.0107 5.75 13.0107C5.84939 13.0107 5.9478 12.9909 6.03949 12.9525C6.13118 12.9142 6.21434 12.858 6.28412 12.7872C6.3539 12.7164 6.40892 12.6325 6.44598 12.5403C6.48305 12.448 6.50141 12.3494 6.5 12.25V11.25C6.50144 11.1496 6.48271 11.0499 6.44493 10.9569C6.40715 10.8639 6.35108 10.7794 6.28005 10.7085C6.20901 10.6375 6.12446 10.5816 6.0314 10.5439C5.93834 10.5063 5.83866 10.4877 5.73828 10.4892Z" fill="#0000FF"/>
</svg>
